<mxfile host="app.diagrams.net" modified="2021-04-21T11:58:57.618Z" agent="5.0 (Windows NT 10.0; Win64; x64) AppleWebKit/537.36 (KHTML, like Gecko) Chrome/89.0.4389.128 Safari/537.36" etag="gD4iwYbtEqBj65wbezgd" version="14.6.3" type="github">
  <diagram id="Jb4tWgrzJc02DxzkDzMU" name="Page-1">
    <mxGraphModel dx="1360" dy="777" grid="1" gridSize="10" guides="1" tooltips="1" connect="1" arrows="1" fold="1" page="1" pageScale="1" pageWidth="850" pageHeight="1100" math="0" shadow="0">
      <root>
        <mxCell id="0" />
        <mxCell id="1" parent="0" />
        <mxCell id="nE-vj8bUUB7WZw9g0mm0-1" value="S1" style="rounded=0;whiteSpace=wrap;html=1;fillColor=#d80073;fontColor=#ffffff;strokeColor=none;" parent="1" vertex="1">
          <mxGeometry x="40" y="240" width="40" height="40" as="geometry" />
        </mxCell>
        <mxCell id="nE-vj8bUUB7WZw9g0mm0-2" value="S3" style="rounded=0;whiteSpace=wrap;html=1;fillColor=#008a00;fontColor=#ffffff;strokeColor=none;" parent="1" vertex="1">
          <mxGeometry x="90" y="240" width="40" height="40" as="geometry" />
        </mxCell>
        <mxCell id="nE-vj8bUUB7WZw9g0mm0-3" value="S4" style="rounded=0;whiteSpace=wrap;html=1;fillColor=#dae8fc;strokeColor=#6c8ebf;" parent="1" vertex="1">
          <mxGeometry x="140" y="240" width="40" height="40" as="geometry" />
        </mxCell>
        <mxCell id="nE-vj8bUUB7WZw9g0mm0-4" value="S3" style="rounded=0;whiteSpace=wrap;html=1;fillColor=#008a00;fontColor=#ffffff;strokeColor=none;" parent="1" vertex="1">
          <mxGeometry x="170" y="160" width="40" height="40" as="geometry" />
        </mxCell>
        <mxCell id="nE-vj8bUUB7WZw9g0mm0-5" value="S5" style="rounded=0;whiteSpace=wrap;html=1;fillColor=#e1d5e7;strokeColor=#9673a6;" parent="1" vertex="1">
          <mxGeometry x="220" y="160" width="40" height="40" as="geometry" />
        </mxCell>
        <mxCell id="nE-vj8bUUB7WZw9g0mm0-6" value="S6" style="rounded=0;whiteSpace=wrap;html=1;fillColor=#647687;strokeColor=#314354;fontColor=#ffffff;" parent="1" vertex="1">
          <mxGeometry x="270" y="160" width="40" height="40" as="geometry" />
        </mxCell>
        <mxCell id="nE-vj8bUUB7WZw9g0mm0-16" value="Agent-1" style="rounded=1;whiteSpace=wrap;html=1;" parent="1" vertex="1">
          <mxGeometry x="90" y="360" width="50" height="30" as="geometry" />
        </mxCell>
        <mxCell id="nE-vj8bUUB7WZw9g0mm0-17" value="Agent-2" style="rounded=1;whiteSpace=wrap;html=1;" parent="1" vertex="1">
          <mxGeometry x="215" y="360" width="50" height="30" as="geometry" />
        </mxCell>
        <mxCell id="nE-vj8bUUB7WZw9g0mm0-21" value="" style="endArrow=none;html=1;entryX=0.5;entryY=1;entryDx=0;entryDy=0;exitX=0.5;exitY=0;exitDx=0;exitDy=0;" parent="1" source="nE-vj8bUUB7WZw9g0mm0-16" target="nE-vj8bUUB7WZw9g0mm0-1" edge="1">
          <mxGeometry width="50" height="50" relative="1" as="geometry">
            <mxPoint x="350" y="340" as="sourcePoint" />
            <mxPoint x="400" y="290" as="targetPoint" />
          </mxGeometry>
        </mxCell>
        <mxCell id="nE-vj8bUUB7WZw9g0mm0-22" value="" style="endArrow=none;html=1;entryX=0.5;entryY=1;entryDx=0;entryDy=0;exitX=0.5;exitY=0;exitDx=0;exitDy=0;" parent="1" source="nE-vj8bUUB7WZw9g0mm0-16" target="nE-vj8bUUB7WZw9g0mm0-2" edge="1">
          <mxGeometry width="50" height="50" relative="1" as="geometry">
            <mxPoint x="350" y="340" as="sourcePoint" />
            <mxPoint x="400" y="290" as="targetPoint" />
          </mxGeometry>
        </mxCell>
        <mxCell id="nE-vj8bUUB7WZw9g0mm0-29" value="" style="endArrow=none;html=1;entryX=0.5;entryY=1;entryDx=0;entryDy=0;exitX=0.5;exitY=0;exitDx=0;exitDy=0;" parent="1" source="nE-vj8bUUB7WZw9g0mm0-16" target="nE-vj8bUUB7WZw9g0mm0-3" edge="1">
          <mxGeometry width="50" height="50" relative="1" as="geometry">
            <mxPoint x="170" y="330.0000000000001" as="sourcePoint" />
            <mxPoint x="220" y="280" as="targetPoint" />
          </mxGeometry>
        </mxCell>
        <mxCell id="nE-vj8bUUB7WZw9g0mm0-30" value="" style="endArrow=none;html=1;exitX=0.5;exitY=0;exitDx=0;exitDy=0;" parent="1" source="nE-vj8bUUB7WZw9g0mm0-17" edge="1">
          <mxGeometry width="50" height="50" relative="1" as="geometry">
            <mxPoint x="-10" y="320.0000000000001" as="sourcePoint" />
            <mxPoint x="190" y="200" as="targetPoint" />
          </mxGeometry>
        </mxCell>
        <mxCell id="nE-vj8bUUB7WZw9g0mm0-31" value="" style="endArrow=none;html=1;exitX=0.5;exitY=0;exitDx=0;exitDy=0;" parent="1" source="nE-vj8bUUB7WZw9g0mm0-17" edge="1">
          <mxGeometry width="50" height="50" relative="1" as="geometry">
            <mxPoint x="170" y="340.0000000000001" as="sourcePoint" />
            <mxPoint x="240" y="200" as="targetPoint" />
          </mxGeometry>
        </mxCell>
        <mxCell id="nE-vj8bUUB7WZw9g0mm0-32" value="" style="endArrow=none;html=1;exitX=0.5;exitY=0;exitDx=0;exitDy=0;entryX=0.5;entryY=1;entryDx=0;entryDy=0;" parent="1" source="nE-vj8bUUB7WZw9g0mm0-17" target="nE-vj8bUUB7WZw9g0mm0-6" edge="1">
          <mxGeometry width="50" height="50" relative="1" as="geometry">
            <mxPoint x="170" y="350.0000000000001" as="sourcePoint" />
            <mxPoint x="170" y="190" as="targetPoint" />
          </mxGeometry>
        </mxCell>
        <mxCell id="nE-vj8bUUB7WZw9g0mm0-38" value="S2" style="rounded=0;whiteSpace=wrap;html=1;fillColor=#fa6800;fontColor=#ffffff;strokeColor=none;" parent="1" vertex="1">
          <mxGeometry x="300" y="240" width="40" height="40" as="geometry" />
        </mxCell>
        <mxCell id="nE-vj8bUUB7WZw9g0mm0-39" value="S3" style="rounded=0;whiteSpace=wrap;html=1;fillColor=#008a00;fontColor=#ffffff;strokeColor=none;" parent="1" vertex="1">
          <mxGeometry x="350" y="240" width="40" height="40" as="geometry" />
        </mxCell>
        <mxCell id="nE-vj8bUUB7WZw9g0mm0-40" value="S5" style="rounded=0;whiteSpace=wrap;html=1;fillColor=#e1d5e7;strokeColor=#9673a6;" parent="1" vertex="1">
          <mxGeometry x="400" y="240" width="40" height="40" as="geometry" />
        </mxCell>
        <mxCell id="nE-vj8bUUB7WZw9g0mm0-41" value="Agent-3" style="rounded=1;whiteSpace=wrap;html=1;" parent="1" vertex="1">
          <mxGeometry x="350" y="360" width="50" height="30" as="geometry" />
        </mxCell>
        <mxCell id="nE-vj8bUUB7WZw9g0mm0-42" value="" style="endArrow=none;html=1;entryX=0.5;entryY=1;entryDx=0;entryDy=0;exitX=0.5;exitY=0;exitDx=0;exitDy=0;" parent="1" source="nE-vj8bUUB7WZw9g0mm0-41" target="nE-vj8bUUB7WZw9g0mm0-38" edge="1">
          <mxGeometry width="50" height="50" relative="1" as="geometry">
            <mxPoint x="610" y="340" as="sourcePoint" />
            <mxPoint x="660" y="290" as="targetPoint" />
          </mxGeometry>
        </mxCell>
        <mxCell id="nE-vj8bUUB7WZw9g0mm0-43" value="" style="endArrow=none;html=1;entryX=0.5;entryY=1;entryDx=0;entryDy=0;exitX=0.5;exitY=0;exitDx=0;exitDy=0;" parent="1" source="nE-vj8bUUB7WZw9g0mm0-41" target="nE-vj8bUUB7WZw9g0mm0-39" edge="1">
          <mxGeometry width="50" height="50" relative="1" as="geometry">
            <mxPoint x="610" y="340" as="sourcePoint" />
            <mxPoint x="660" y="290" as="targetPoint" />
          </mxGeometry>
        </mxCell>
        <mxCell id="nE-vj8bUUB7WZw9g0mm0-44" value="" style="endArrow=none;html=1;entryX=0.5;entryY=1;entryDx=0;entryDy=0;exitX=0.5;exitY=0;exitDx=0;exitDy=0;" parent="1" source="nE-vj8bUUB7WZw9g0mm0-41" target="nE-vj8bUUB7WZw9g0mm0-40" edge="1">
          <mxGeometry width="50" height="50" relative="1" as="geometry">
            <mxPoint x="430" y="330.0000000000001" as="sourcePoint" />
            <mxPoint x="480" y="280" as="targetPoint" />
          </mxGeometry>
        </mxCell>
        <mxCell id="nE-vj8bUUB7WZw9g0mm0-45" value="S3" style="rounded=0;whiteSpace=wrap;html=1;fillColor=#008a00;fontColor=#ffffff;strokeColor=none;" parent="1" vertex="1">
          <mxGeometry x="505" y="160" width="40" height="40" as="geometry" />
        </mxCell>
        <mxCell id="nE-vj8bUUB7WZw9g0mm0-46" value="Agent-4" style="rounded=1;whiteSpace=wrap;html=1;" parent="1" vertex="1">
          <mxGeometry x="500" y="360" width="50" height="30" as="geometry" />
        </mxCell>
        <mxCell id="nE-vj8bUUB7WZw9g0mm0-47" value="" style="endArrow=none;html=1;exitX=0.5;exitY=0;exitDx=0;exitDy=0;" parent="1" source="nE-vj8bUUB7WZw9g0mm0-46" edge="1">
          <mxGeometry width="50" height="50" relative="1" as="geometry">
            <mxPoint x="275" y="320.0000000000001" as="sourcePoint" />
            <mxPoint x="475" y="200" as="targetPoint" />
          </mxGeometry>
        </mxCell>
        <mxCell id="nE-vj8bUUB7WZw9g0mm0-48" value="" style="endArrow=none;html=1;exitX=0.5;exitY=0;exitDx=0;exitDy=0;" parent="1" source="nE-vj8bUUB7WZw9g0mm0-46" edge="1">
          <mxGeometry width="50" height="50" relative="1" as="geometry">
            <mxPoint x="455" y="340.0000000000001" as="sourcePoint" />
            <mxPoint x="525" y="200" as="targetPoint" />
          </mxGeometry>
        </mxCell>
        <mxCell id="nE-vj8bUUB7WZw9g0mm0-49" value="" style="endArrow=none;html=1;exitX=0.5;exitY=0;exitDx=0;exitDy=0;entryX=0.5;entryY=1;entryDx=0;entryDy=0;" parent="1" source="nE-vj8bUUB7WZw9g0mm0-46" target="nE-vj8bUUB7WZw9g0mm0-51" edge="1">
          <mxGeometry width="50" height="50" relative="1" as="geometry">
            <mxPoint x="455" y="350.0000000000001" as="sourcePoint" />
            <mxPoint x="455" y="190" as="targetPoint" />
          </mxGeometry>
        </mxCell>
        <mxCell id="nE-vj8bUUB7WZw9g0mm0-50" value="S1" style="rounded=0;whiteSpace=wrap;html=1;fillColor=#d80073;fontColor=#ffffff;strokeColor=none;" parent="1" vertex="1">
          <mxGeometry x="455" y="160" width="40" height="40" as="geometry" />
        </mxCell>
        <mxCell id="nE-vj8bUUB7WZw9g0mm0-51" value="S6" style="rounded=0;whiteSpace=wrap;html=1;fillColor=#647687;strokeColor=#314354;fontColor=#ffffff;" parent="1" vertex="1">
          <mxGeometry x="555" y="160" width="40" height="40" as="geometry" />
        </mxCell>
        <mxCell id="nE-vj8bUUB7WZw9g0mm0-52" value="S2" style="rounded=0;whiteSpace=wrap;html=1;fillColor=#fa6800;fontColor=#ffffff;strokeColor=none;" parent="1" vertex="1">
          <mxGeometry x="600" y="240" width="40" height="40" as="geometry" />
        </mxCell>
        <mxCell id="nE-vj8bUUB7WZw9g0mm0-53" value="S3" style="rounded=0;whiteSpace=wrap;html=1;fillColor=#008a00;fontColor=#ffffff;strokeColor=none;" parent="1" vertex="1">
          <mxGeometry x="650" y="240" width="40" height="40" as="geometry" />
        </mxCell>
        <mxCell id="nE-vj8bUUB7WZw9g0mm0-54" value="S7" style="rounded=0;whiteSpace=wrap;html=1;fillColor=#cdeb8b;strokeColor=#36393d;" parent="1" vertex="1">
          <mxGeometry x="700" y="240" width="40" height="40" as="geometry" />
        </mxCell>
        <mxCell id="nE-vj8bUUB7WZw9g0mm0-55" value="Agent-5" style="rounded=1;whiteSpace=wrap;html=1;" parent="1" vertex="1">
          <mxGeometry x="650" y="360" width="50" height="30" as="geometry" />
        </mxCell>
        <mxCell id="nE-vj8bUUB7WZw9g0mm0-56" value="" style="endArrow=none;html=1;entryX=0.5;entryY=1;entryDx=0;entryDy=0;exitX=0.5;exitY=0;exitDx=0;exitDy=0;" parent="1" source="nE-vj8bUUB7WZw9g0mm0-55" target="nE-vj8bUUB7WZw9g0mm0-52" edge="1">
          <mxGeometry width="50" height="50" relative="1" as="geometry">
            <mxPoint x="910" y="340" as="sourcePoint" />
            <mxPoint x="960" y="290" as="targetPoint" />
          </mxGeometry>
        </mxCell>
        <mxCell id="nE-vj8bUUB7WZw9g0mm0-57" value="" style="endArrow=none;html=1;entryX=0.5;entryY=1;entryDx=0;entryDy=0;exitX=0.5;exitY=0;exitDx=0;exitDy=0;" parent="1" source="nE-vj8bUUB7WZw9g0mm0-55" target="nE-vj8bUUB7WZw9g0mm0-53" edge="1">
          <mxGeometry width="50" height="50" relative="1" as="geometry">
            <mxPoint x="910" y="340" as="sourcePoint" />
            <mxPoint x="960" y="290" as="targetPoint" />
          </mxGeometry>
        </mxCell>
        <mxCell id="nE-vj8bUUB7WZw9g0mm0-58" value="" style="endArrow=none;html=1;entryX=0.5;entryY=1;entryDx=0;entryDy=0;exitX=0.5;exitY=0;exitDx=0;exitDy=0;" parent="1" source="nE-vj8bUUB7WZw9g0mm0-55" target="nE-vj8bUUB7WZw9g0mm0-54" edge="1">
          <mxGeometry width="50" height="50" relative="1" as="geometry">
            <mxPoint x="730" y="330.0000000000001" as="sourcePoint" />
            <mxPoint x="780" y="280" as="targetPoint" />
          </mxGeometry>
        </mxCell>
        <mxCell id="K2jPBB3K73olM8czu6LE-1" value="" style="ellipse;shape=cloud;whiteSpace=wrap;html=1;" vertex="1" parent="1">
          <mxGeometry x="190" y="530" width="490" height="80" as="geometry" />
        </mxCell>
        <mxCell id="K2jPBB3K73olM8czu6LE-2" value="" style="endArrow=none;html=1;entryX=0.5;entryY=1;entryDx=0;entryDy=0;exitX=0.25;exitY=0.25;exitDx=0;exitDy=0;exitPerimeter=0;strokeColor=#0000FF;" edge="1" parent="1" source="K2jPBB3K73olM8czu6LE-1" target="nE-vj8bUUB7WZw9g0mm0-16">
          <mxGeometry width="50" height="50" relative="1" as="geometry">
            <mxPoint x="400" y="320" as="sourcePoint" />
            <mxPoint x="450" y="270" as="targetPoint" />
          </mxGeometry>
        </mxCell>
        <mxCell id="K2jPBB3K73olM8czu6LE-5" value="" style="endArrow=none;html=1;strokeColor=#0000FF;entryX=0.5;entryY=1;entryDx=0;entryDy=0;exitX=0.4;exitY=0.1;exitDx=0;exitDy=0;exitPerimeter=0;" edge="1" parent="1" source="K2jPBB3K73olM8czu6LE-1" target="nE-vj8bUUB7WZw9g0mm0-17">
          <mxGeometry width="50" height="50" relative="1" as="geometry">
            <mxPoint x="280" y="440" as="sourcePoint" />
            <mxPoint x="330" y="390" as="targetPoint" />
          </mxGeometry>
        </mxCell>
        <mxCell id="K2jPBB3K73olM8czu6LE-6" value="" style="endArrow=none;html=1;strokeColor=#0000FF;entryX=0.5;entryY=1;entryDx=0;entryDy=0;exitX=0.4;exitY=0.1;exitDx=0;exitDy=0;exitPerimeter=0;" edge="1" parent="1" source="K2jPBB3K73olM8czu6LE-1" target="nE-vj8bUUB7WZw9g0mm0-41">
          <mxGeometry width="50" height="50" relative="1" as="geometry">
            <mxPoint x="400" y="648" as="sourcePoint" />
            <mxPoint x="254" y="500" as="targetPoint" />
          </mxGeometry>
        </mxCell>
        <mxCell id="K2jPBB3K73olM8czu6LE-7" value="" style="endArrow=none;html=1;strokeColor=#0000FF;entryX=0.5;entryY=1;entryDx=0;entryDy=0;exitX=0.625;exitY=0.2;exitDx=0;exitDy=0;exitPerimeter=0;" edge="1" parent="1" source="K2jPBB3K73olM8czu6LE-1" target="nE-vj8bUUB7WZw9g0mm0-46">
          <mxGeometry width="50" height="50" relative="1" as="geometry">
            <mxPoint x="451" y="648" as="sourcePoint" />
            <mxPoint x="440" y="500" as="targetPoint" />
          </mxGeometry>
        </mxCell>
        <mxCell id="K2jPBB3K73olM8czu6LE-8" value="" style="endArrow=none;html=1;strokeColor=#0000FF;entryX=0.5;entryY=1;entryDx=0;entryDy=0;exitX=0.88;exitY=0.25;exitDx=0;exitDy=0;exitPerimeter=0;" edge="1" parent="1" source="K2jPBB3K73olM8czu6LE-1" target="nE-vj8bUUB7WZw9g0mm0-55">
          <mxGeometry width="50" height="50" relative="1" as="geometry">
            <mxPoint x="670" y="676" as="sourcePoint" />
            <mxPoint x="698.75" y="520" as="targetPoint" />
          </mxGeometry>
        </mxCell>
      </root>
    </mxGraphModel>
  </diagram>
</mxfile>
